<svg width="30" height="31" viewBox="0 0 30 31" fill="none" xmlns="http://www.w3.org/2000/svg">
<path d="M29.9035 8.87027C29.8867 7.61063 29.6509 6.36352 29.2066 5.18471C28.8213 4.1904 28.2329 3.28738 27.4789 2.53336C26.7248 1.77934 25.8218 1.1909 24.8275 0.805624C23.6639 0.368808 22.4345 0.132614 21.1918 0.107099C19.5919 0.035583 19.0846 0.015625 15.0232 0.015625C10.9618 0.015625 10.4412 0.0156251 8.85289 0.107099C7.61077 0.132801 6.38202 0.368993 5.21889 0.805624C4.22442 1.19063 3.32127 1.77898 2.56721 2.53303C1.81316 3.28709 1.22481 4.19024 0.839804 5.18471C0.402113 6.34748 0.16643 7.57651 0.142941 8.81871C0.0714257 10.4203 0.0498047 10.9276 0.0498047 14.989C0.0498047 19.0504 0.0498047 19.5693 0.142941 21.1593C0.167889 22.4034 0.402394 23.6308 0.839804 24.7966C1.22545 25.7908 1.81424 26.6936 2.56855 27.4473C3.32286 28.2011 4.22609 28.7892 5.22056 29.1741C6.3805 29.6284 7.60947 29.8815 8.85455 29.9225C10.4562 29.994 10.9634 30.0156 15.0249 30.0156C19.0863 30.0156 19.6069 30.0156 21.1952 29.9225C22.4378 29.898 23.6672 29.6624 24.8308 29.2256C25.8249 28.8399 26.7277 28.2513 27.4816 27.4973C28.2356 26.7434 28.8242 25.8406 29.2099 24.8465C29.6473 23.6823 29.8818 22.4549 29.9068 21.2092C29.9783 19.6093 29.9999 19.102 29.9999 15.0389C29.9966 10.9775 29.9966 10.4619 29.9035 8.87027ZM15.0132 22.6695C10.7655 22.6695 7.32445 19.2284 7.32445 14.9807C7.32445 10.733 10.7655 7.29193 15.0132 7.29193C17.0524 7.29193 19.0081 8.102 20.45 9.54392C21.8919 10.9858 22.702 12.9415 22.702 14.9807C22.702 17.0199 21.8919 18.9756 20.45 20.4175C19.0081 21.8594 17.0524 22.6695 15.0132 22.6695ZM23.008 8.80041C22.7725 8.80063 22.5393 8.75441 22.3216 8.66438C22.104 8.57436 21.9063 8.44231 21.7398 8.27578C21.5732 8.10925 21.4412 7.91152 21.3512 7.6939C21.2611 7.47627 21.2149 7.24304 21.2151 7.00753C21.2151 6.7722 21.2615 6.53917 21.3515 6.32174C21.4416 6.10432 21.5736 5.90677 21.74 5.74036C21.9064 5.57395 22.104 5.44195 22.3214 5.35189C22.5388 5.26183 22.7718 5.21548 23.0072 5.21548C23.2425 5.21548 23.4755 5.26183 23.693 5.35189C23.9104 5.44195 24.1079 5.57395 24.2743 5.74036C24.4408 5.90677 24.5728 6.10432 24.6628 6.32174C24.7529 6.53917 24.7992 6.7722 24.7992 7.00753C24.7992 7.99877 23.9976 8.80041 23.008 8.80041Z" fill="#FFFFFF"/>
<path d="M15.013 19.9752C17.7714 19.9752 20.0075 17.7391 20.0075 14.9808C20.0075 12.2224 17.7714 9.98633 15.013 9.98633C12.2546 9.98633 10.0186 12.2224 10.0186 14.9808C10.0186 17.7391 12.2546 19.9752 15.013 19.9752Z" fill="#FFFFFF"/>
</svg>