<svg width="30" height="31" viewBox="0 0 30 31" fill="none" xmlns="http://www.w3.org/2000/svg">
<path d="M15 0.015625C6.71562 0.015625 0 6.73125 0 15.0156C0 23.3 6.71562 30.0156 15 30.0156C23.2844 30.0156 30 23.3 30 15.0156C30 6.73125 23.2844 0.015625 15 0.015625ZM11.3281 21.2328H8.29062V11.4578H11.3281V21.2328ZM9.79062 10.2578C8.83125 10.2578 8.21094 9.57812 8.21094 8.7375C8.21094 7.87969 8.85 7.22031 9.82969 7.22031C10.8094 7.22031 11.4094 7.87969 11.4281 8.7375C11.4281 9.57812 10.8094 10.2578 9.79062 10.2578ZM22.4219 21.2328H19.3844V15.8156C19.3844 14.5547 18.9437 13.6984 17.8453 13.6984C17.0063 13.6984 16.5078 14.2781 16.2875 14.8359C16.2062 15.0344 16.1859 15.3156 16.1859 15.5953V21.2312H13.1469V14.575C13.1469 13.3547 13.1078 12.3344 13.0672 11.4562H15.7062L15.8453 12.8141H15.9062C16.3062 12.1766 17.2859 11.2359 18.925 11.2359C20.9234 11.2359 22.4219 12.575 22.4219 15.4531V21.2328Z" fill="#423EF4"/>
</svg>