<svg width="30" height="31" viewBox="0 0 30 31" fill="none" xmlns="http://www.w3.org/2000/svg">
<path d="M15 0.015625C6.71652 0.015625 0 6.73214 0 15.0156C0 23.2991 6.71652 30.0156 15 30.0156C23.2835 30.0156 30 23.2991 30 15.0156C30 6.73214 23.2835 0.015625 15 0.015625ZM22.2087 11.3225C22.2187 11.4799 22.2187 11.644 22.2187 11.8047C22.2187 16.7199 18.4754 22.3817 11.635 22.3817C9.52567 22.3817 7.57031 21.769 5.92299 20.7143C6.22433 20.7478 6.51228 20.7612 6.82031 20.7612C8.56138 20.7612 10.1618 20.1719 11.4375 19.1741C9.80357 19.1406 8.4308 18.0692 7.96205 16.596C8.5346 16.6797 9.05022 16.6797 9.63951 16.529C8.79819 16.3581 8.04199 15.9012 7.49938 15.2359C6.95678 14.5706 6.66123 13.738 6.66295 12.8795V12.8326C7.15513 13.1105 7.73438 13.2812 8.3404 13.3047C7.83095 12.9652 7.41314 12.5052 7.12403 11.9655C6.83493 11.4258 6.68345 10.8232 6.68304 10.2109C6.68304 9.51786 6.86384 8.88504 7.18862 8.33594C8.12244 9.4855 9.28771 10.4257 10.6087 11.0954C11.9297 11.7651 13.3768 12.1494 14.856 12.2232C14.3304 9.69531 16.2188 7.64955 18.4888 7.64955C19.5603 7.64955 20.5246 8.09821 21.2042 8.82143C22.0446 8.66406 22.8482 8.34933 23.5647 7.92745C23.2868 8.78795 22.7042 9.51451 21.9308 9.97321C22.6808 9.89286 23.404 9.68527 24.0737 9.39397C23.5681 10.1373 22.9353 10.7969 22.2087 11.3225Z" fill="#FFFFFF"/>
</svg>