<svg width="30" height="31" viewBox="0 0 30 31" fill="none" xmlns="http://www.w3.org/2000/svg">
<path d="M17.5047 14.7547L13.9953 13.1172C13.6891 12.975 13.4375 13.1344 13.4375 13.4734V16.5578C13.4375 16.8969 13.6891 17.0562 13.9953 16.9141L17.5031 15.2766C17.8109 15.1328 17.8109 14.8984 17.5047 14.7547ZM15 0.015625C6.71562 0.015625 0 6.73125 0 15.0156C0 23.3 6.71562 30.0156 15 30.0156C23.2844 30.0156 30 23.3 30 15.0156C30 6.73125 23.2844 0.015625 15 0.015625ZM15 21.1094C7.32188 21.1094 7.1875 20.4172 7.1875 15.0156C7.1875 9.61406 7.32188 8.92187 15 8.92187C22.6781 8.92187 22.8125 9.61406 22.8125 15.0156C22.8125 20.4172 22.6781 21.1094 15 21.1094Z" fill="#FFFFFF"/>
</svg>